<?xml version="1.0" encoding="UTF-8" standalone="no"?>
<svg
   xmlns:dc="http://purl.org/dc/elements/1.1/"
   xmlns:cc="http://creativecommons.org/ns#"
   xmlns:rdf="http://www.w3.org/1999/02/22-rdf-syntax-ns#"
   xmlns:svg="http://www.w3.org/2000/svg"
   xmlns="http://www.w3.org/2000/svg"
   xmlns:sodipodi="http://sodipodi.sourceforge.net/DTD/sodipodi-0.dtd"
   xmlns:inkscape="http://www.inkscape.org/namespaces/inkscape"
   inkscape:version="1.0 (4035a4fb49, 2020-05-01)"
   sodipodi:docname="Group 1.svg"
   id="svg42"
   version="1.1"
   fill="none"
   viewBox="0 0 350 220"
   height="220"
   width="350">
  <metadata
     id="metadata46">
    <rdf:RDF>
      <cc:Work
         rdf:about="">
        <dc:format>image/svg+xml</dc:format>
        <dc:type
           rdf:resource="http://purl.org/dc/dcmitype/StillImage" />
        <dc:title></dc:title>
      </cc:Work>
    </rdf:RDF>
  </metadata>
  <sodipodi:namedview
     inkscape:current-layer="svg42"
     inkscape:window-maximized="1"
     inkscape:window-y="32"
     inkscape:window-x="1912"
     inkscape:cy="69.848451"
     inkscape:cx="172.93311"
     inkscape:zoom="1.7948276"
     showgrid="false"
     id="namedview44"
     inkscape:window-height="1017"
     inkscape:window-width="1920"
     inkscape:pageshadow="2"
     inkscape:pageopacity="0"
     guidetolerance="10"
     gridtolerance="10"
     objecttolerance="10"
     borderopacity="1"
     bordercolor="#666666"
     pagecolor="#ffffff" />
  <defs
     id="defs40">
    <filter
       color-interpolation-filters="sRGB"
       filterUnits="userSpaceOnUse"
       height="169"
       width="289.52802"
       y="0"
       x="0"
       id="filter0_d">
      <feFlood
         id="feFlood10"
         result="BackgroundImageFix"
         flood-opacity="0" />
      <feColorMatrix
         id="feColorMatrix12"
         values="0 0 0 0 0 0 0 0 0 0 0 0 0 0 0 0 0 0 127 0"
         type="matrix"
         in="SourceAlpha" />
      <feOffset
         id="feOffset14"
         dy="4" />
      <feGaussianBlur
         id="feGaussianBlur16"
         stdDeviation="2" />
      <feColorMatrix
         id="feColorMatrix18"
         values="0 0 0 0 0 0 0 0 0 0 0 0 0 0 0 0 0 0 0.25 0"
         type="matrix" />
      <feBlend
         id="feBlend20"
         result="effect1_dropShadow"
         in2="BackgroundImageFix"
         mode="normal" />
      <feBlend
         id="feBlend22"
         result="shape"
         in2="effect1_dropShadow"
         in="SourceGraphic"
         mode="normal" />
    </filter>
    <linearGradient
       gradientUnits="userSpaceOnUse"
       y2="161"
       x2="273"
       y1="25"
       x1="9.5"
       id="paint0_linear">
      <stop
         id="stop25"
         stop-color="#AA4465" />
      <stop
         id="stop27"
         stop-color="#FF495C"
         offset="1" />
    </linearGradient>
    <linearGradient
       gradientUnits="userSpaceOnUse"
       y2="160"
       x2="286"
       y1="26"
       x1="4"
       id="paint1_linear">
      <stop
         id="stop30"
         stop-color="#AA4465" />
      <stop
         id="stop32"
         stop-color="#FF495C"
         offset="1" />
    </linearGradient>
    <linearGradient
       gradientUnits="userSpaceOnUse"
       y2="158"
       x2="268"
       y1="26"
       x1="2.49998"
       id="paint2_linear">
      <stop
         id="stop35"
         stop-color="#AA4465" />
      <stop
         id="stop37"
         stop-color="#FF495C"
         offset="1" />
    </linearGradient>
    <filter
       id="filter0_d-8"
       x="0.53125"
       y="0.5"
       width="323.24899"
       height="30.792999"
       filterUnits="userSpaceOnUse"
       color-interpolation-filters="sRGB">
      <feFlood
         flood-opacity="0"
         result="BackgroundImageFix"
         id="feFlood6" />
      <feColorMatrix
         in="SourceAlpha"
         type="matrix"
         values="0 0 0 0 0 0 0 0 0 0 0 0 0 0 0 0 0 0 127 0"
         id="feColorMatrix8" />
      <feOffset
         dy="4"
         id="feOffset10" />
      <feGaussianBlur
         stdDeviation="2"
         id="feGaussianBlur12" />
      <feColorMatrix
         type="matrix"
         values="0 0 0 0 0 0 0 0 0 0 0 0 0 0 0 0 0 0 0.25 0"
         id="feColorMatrix14" />
      <feBlend
         mode="normal"
         in2="BackgroundImageFix"
         result="effect1_dropShadow"
         id="feBlend16" />
      <feBlend
         mode="normal"
         in="SourceGraphic"
         in2="effect1_dropShadow"
         result="shape"
         id="feBlend18" />
    </filter>
    <linearGradient
       id="paint0_linear-9"
       x1="20.5"
       y1="-161"
       x2="281"
       y2="-36"
       gradientUnits="userSpaceOnUse">
      <stop
         stop-color="#AA4465"
         id="stop21" />
      <stop
         offset="1"
         stop-color="#FF495C"
         id="stop23" />
    </linearGradient>
  </defs>
  <g
     transform="translate(30,10.05175)"
     id="g907">
    <g
       filter="url(#filter0_d)"
       id="g8"
       transform="translate(0.23599243)">
      <path
         d="m 192.907,161 c -13.189,0 -24.512,-2.818 -33.969,-8.453 -9.457,-5.761 -16.736,-13.713 -21.837,-23.856 -5.102,-10.269 -7.653,-22.104 -7.653,-35.5032 0,-13.3996 2.551,-25.2338 7.653,-35.5027 5.101,-10.2689 12.38,-18.2836 21.837,-24.0442 C 168.395,27.8803 179.718,25 192.907,25 c 15.678,0 28.494,3.9447 38.449,11.8342 10.079,7.7643 16.362,18.722 18.851,32.873 H 223.89 c -1.618,-7.1381 -5.102,-12.7109 -10.452,-16.7183 -5.226,-4.1325 -12.194,-6.1988 -20.904,-6.1988 -12.07,0 -21.526,4.1325 -28.37,12.3977 -6.844,8.2652 -10.265,19.5986 -10.265,34 0,14.4012 3.421,25.7352 10.265,34.0002 6.844,8.14 16.3,12.21 28.37,12.21 8.71,0 15.678,-1.879 20.904,-5.636 5.35,-3.882 8.834,-9.204 10.452,-15.966 h 26.317 c -2.489,13.524 -8.772,24.106 -18.851,31.745 C 221.401,157.18 208.585,161 192.907,161 Z"
         fill="url(#paint0_linear)"
         id="path2"
         style="fill:url(#paint0_linear)" />
      <path
         d="m 55.0275,159.828 c -9.5599,0 -18.1886,-1.878 -25.8862,-5.632 -7.6976,-3.88 -13.8432,-9.699 -18.437,-17.458 C 6.23478,128.979 4,119.155 4,107.267 V 26.1724 h 23.8377 v 81.2816 c 0,10.262 2.421,17.896 7.263,22.902 4.9662,5.006 11.7947,7.509 20.4855,7.509 8.5667,0 15.3331,-2.503 20.2993,-7.509 4.9662,-5.006 7.4492,-12.64 7.4492,-22.902 V 26.1724 h 23.8373 v 81.0946 c 0,11.888 -2.359,21.712 -7.076,29.471 -4.7183,7.759 -11.0501,13.578 -18.996,17.458 -7.8218,3.754 -16.5126,5.632 -26.0725,5.632 z"
         fill="url(#paint1_linear)"
         id="path4"
         style="fill:url(#paint1_linear)" />
      <path
         d="m 268.176,52.128 c -3.312,0 -6.312,-0.576 -9,-1.728 -2.688,-1.2 -4.848,-3.024 -6.48,-5.472 -1.632,-2.448 -2.496,-5.52 -2.592,-9.216 h 9.072 c 0.048,2.448 0.84,4.512 2.376,6.192 1.584,1.632 3.792,2.448 6.624,2.448 2.688,0 4.752,-0.744 6.192,-2.232 1.44,-1.488 2.16,-3.36 2.16,-5.616 0,-2.64 -0.96,-4.632 -2.88,-5.976 -1.872,-1.392 -4.296,-2.088 -7.272,-2.088 h -3.744 v -7.56 h 3.816 c 2.448,0 4.488,-0.576 6.12,-1.728 1.632,-1.152 2.448,-2.856 2.448,-5.112 0,-1.872 -0.624,-3.36 -1.872,-4.464 -1.2,-1.152 -2.88,-1.728 -5.04,-1.728 -2.352,0 -4.2,0.696 -5.544,2.088 -1.296,1.392 -2.016,3.096 -2.16,5.112 h -9 C 251.592,10.392 253.2,6.72 256.224,4.032 259.296,1.344 263.256,0 268.104,0 c 3.456,0 6.36,0.623998 8.712,1.872 2.4,1.2 4.2,2.808 5.4,4.824 1.248,2.016 1.872,4.248 1.872,6.696 0,2.832 -0.792,5.232 -2.376,7.2 -1.536,1.92 -3.456,3.216 -5.76,3.888 2.832,0.576 5.136,1.968 6.912,4.176 1.776,2.16 2.664,4.896 2.664,8.208 0,2.784 -0.672,5.328 -2.016,7.632 -1.344,2.304 -3.312,4.152 -5.904,5.544 -2.544,1.392 -5.688,2.088 -9.432,2.088 z"
         fill="url(#paint2_linear)"
         id="path6"
         style="fill:url(#paint2_linear)" />
    </g>
    <g
       style="filter:url(#filter0_d-8)"
       id="g4"
       filter="url(#filter0_d)"
       transform="translate(-17.155746,168.6035)">
      <path
         id="path2-2"
         fill="url(#paint0_linear)"
         d="M 18.374,18.0342 H 10.1123 L 8.38379,23 H 4.53125 L 12.5879,1.67188 h 3.3252 L 23.9844,23 H 20.1172 Z M 11.1523,15.0459 H 17.334 L 14.2432,6.19824 Z m 28.8282,0.1904 c 0,2.461 -0.5518,4.419 -1.6553,5.8741 -1.0938,1.455 -2.6025,2.1826 -4.5264,2.1826 -1.8554,0 -3.3008,-0.669 -4.3359,-2.0069 L 29.2871,23 H 26.0645 V 0.5 h 3.5595 v 8.17383 c 1.0254,-1.21094 2.4072,-1.81641 4.1455,-1.81641 1.9336,0 3.4522,0.71778 4.5557,2.15332 1.1035,1.43556 1.6553,3.44236 1.6553,6.02046 z m -3.5596,-0.3076 c 0,-1.7187 -0.3027,-3.0078 -0.9082,-3.8672 -0.6055,-0.8594 -1.4844,-1.28904 -2.6367,-1.28904 -1.543,0 -2.627,0.67384 -3.252,2.02144 v 6.5332 c 0.6348,1.377 1.7285,2.0655 3.2813,2.0655 1.1133,0 1.9726,-0.4151 2.5781,-1.2451 0.6055,-0.8301 0.918,-2.085 0.9375,-3.7647 z m 15.4395,3.7647 c 0,-0.6348 -0.2637,-1.1182 -0.7911,-1.4502 -0.5175,-0.3321 -1.3818,-0.625 -2.5927,-0.8789 -1.211,-0.2539 -2.2217,-0.5762 -3.0323,-0.9668 -1.7773,-0.8594 -2.666,-2.1045 -2.666,-3.7354 0,-1.3672 0.5762,-2.50976 1.7285,-3.42772 1.1524,-0.91797 2.6172,-1.37696 4.3946,-1.37696 1.8945,0 3.4228,0.46875 4.5849,1.40625 1.1719,0.9375 1.7578,2.15333 1.7578,3.64743 h -3.5595 c 0,-0.6836 -0.2539,-1.25 -0.7617,-1.6992 -0.5079,-0.45897 -1.1817,-0.68846 -2.0215,-0.68846 -0.7813,0 -1.4209,0.18066 -1.919,0.54196 -0.4883,0.3614 -0.7324,0.8448 -0.7324,1.4502 0,0.5469 0.2295,0.9717 0.6885,1.2744 0.459,0.3028 1.3867,0.6104 2.7832,0.9229 1.3965,0.3027 2.4902,0.6689 3.2812,1.0986 0.8008,0.4199 1.3916,0.9278 1.7725,1.5235 0.3906,0.5957 0.5859,1.3183 0.5859,2.1679 0,1.4258 -0.5908,2.583 -1.7724,3.4717 -1.1817,0.8789 -2.7295,1.3184 -4.6436,1.3184 -1.2988,0 -2.456,-0.2344 -3.4717,-0.7032 C 44.458,22.1211 43.667,21.4766 43.1006,20.6562 42.5342,19.8359 42.251,18.9521 42.251,18.0049 h 3.457 c 0.0488,0.8398 0.3662,1.4892 0.9522,1.9482 0.5859,0.4492 1.3623,0.6739 2.3291,0.6739 0.9375,0 1.6503,-0.1758 2.1386,-0.5274 0.4883,-0.3613 0.7325,-0.8301 0.7325,-1.4062 z M 62.9346,3.29785 v 3.85254 h 2.7978 v 2.63672 h -2.7978 v 8.84769 c 0,0.6054 0.1172,1.0449 0.3515,1.3183 0.2442,0.2637 0.6739,0.3955 1.2891,0.3955 0.4102,0 0.8252,-0.0488 1.2451,-0.1465 v 2.754 c -0.8105,0.2246 -1.5918,0.3369 -2.3437,0.3369 -2.7344,0 -4.1016,-1.5088 -4.1016,-4.5264 V 9.78711 H 56.7676 V 7.15039 H 59.375 V 3.29785 Z m 13.8281,7.10445 c -0.4688,-0.0781 -0.9522,-0.1171 -1.4502,-0.1171 -1.6309,0 -2.7295,0.625 -3.2959,1.875 V 23 H 68.457 V 7.15039 h 3.3985 l 0.0879,1.77246 c 0.8593,-1.37695 2.0507,-2.06543 3.5742,-2.06543 0.5078,0 0.9277,0.06836 1.2597,0.20508 z M 88.042,23 c -0.1563,-0.3027 -0.293,-0.7959 -0.4102,-1.4795 -1.1328,1.1816 -2.5195,1.7725 -4.1601,1.7725 -1.5918,0 -2.8906,-0.4541 -3.8965,-1.3623 -1.0059,-0.9082 -1.5088,-2.0313 -1.5088,-3.3692 0,-1.6894 0.625,-2.9834 1.875,-3.8818 1.2598,-0.9082 3.0566,-1.3623 5.3906,-1.3623 h 2.1826 v -1.0401 c 0,-0.8203 -0.2294,-1.4746 -0.6884,-1.9628 -0.459,-0.49809 -1.1573,-0.74712 -2.0948,-0.74712 -0.8105,0 -1.4746,0.20508 -1.9921,0.61522 -0.5176,0.4004 -0.7764,0.9131 -0.7764,1.5381 h -3.5596 c 0,-0.8691 0.2881,-1.6797 0.8643,-2.43164 0.5762,-0.76172 1.3574,-1.35742 2.3437,-1.78711 0.9961,-0.42968 2.1045,-0.64453 3.3252,-0.64453 1.8555,0 3.335,0.46875 4.4385,1.40625 1.1035,0.92774 1.6699,2.23633 1.6992,3.92583 v 7.1484 c 0,1.4258 0.2002,2.5635 0.6006,3.4131 V 23 Z m -3.9111,-2.5635 c 0.7031,0 1.3623,-0.1709 1.9775,-0.5127 0.625,-0.3418 1.0937,-0.8008 1.4062,-1.3769 v -2.9883 h -1.9189 c -1.3184,0 -2.3096,0.2295 -2.9736,0.6885 -0.6641,0.459 -0.9961,1.1084 -0.9961,1.9482 0,0.6836 0.2246,1.2305 0.6738,1.6406 0.459,0.4004 1.0693,0.6006 1.8311,0.6006 z m 17.1821,0.0147 c 0.889,0 1.626,-0.2588 2.212,-0.7764 0.586,-0.5176 0.899,-1.1572 0.938,-1.9189 h 3.354 c -0.039,0.9863 -0.346,1.9091 -0.922,2.7685 -0.577,0.8496 -1.358,1.5235 -2.344,2.0215 -0.987,0.498 -2.051,0.7471 -3.194,0.7471 -2.2164,0 -3.9742,-0.7178 -5.273,-2.1534 -1.2988,-1.4355 -1.9483,-3.4179 -1.9483,-5.9472 v -0.3662 c 0,-2.4121 0.6446,-4.3408 1.9336,-5.78616 1.2891,-1.45508 3.0469,-2.18262 5.2737,-2.18262 1.885,0 3.418,0.55176 4.599,1.65528 1.192,1.09375 1.817,2.5342 1.875,4.3213 h -3.354 c -0.039,-0.9082 -0.352,-1.6553 -0.938,-2.2412 -0.576,-0.586 -1.313,-0.87893 -2.212,-0.87893 -1.152,0 -2.0405,0.41993 -2.6655,1.25973 -0.625,0.8301 -0.9424,2.0948 -0.9522,3.794 v 0.5713 c 0,1.7187 0.3076,3.0029 0.9229,3.8525 0.625,0.8398 1.5238,1.2598 2.6948,1.2598 z M 114.966,3.29785 v 3.85254 h 2.798 v 2.63672 h -2.798 v 8.84769 c 0,0.6054 0.117,1.0449 0.351,1.3183 0.245,0.2637 0.674,0.3955 1.289,0.3955 0.411,0 0.826,-0.0488 1.246,-0.1465 v 2.754 c -0.811,0.2246 -1.592,0.3369 -2.344,0.3369 -2.735,0 -4.102,-1.5088 -4.102,-4.5264 V 9.78711 h -2.607 V 7.15039 h 2.607 V 3.29785 Z M 131.753,23 h -3.56 V 7.15039 h 3.56 z M 127.974,3.03418 c 0,-0.54688 0.171,-1.00098 0.512,-1.3623 0.352,-0.36133 0.85,-0.542 1.494,-0.542 0.645,0 1.143,0.18067 1.495,0.542 0.351,0.36132 0.527,0.81542 0.527,1.3623 0,0.53711 -0.176,0.98633 -0.527,1.34766 -0.352,0.35156 -0.85,0.52734 -1.495,0.52734 -0.644,0 -1.142,-0.17578 -1.494,-0.52734 -0.341,-0.36133 -0.512,-0.81055 -0.512,-1.34766 z m 10.971,4.11621 0.103,1.83106 c 1.172,-1.41602 2.71,-2.12403 4.614,-2.12403 3.301,0 4.981,1.88965 5.039,5.66898 V 23 h -3.559 V 12.7314 c 0,-1.0058 -0.22,-1.748 -0.66,-2.2265 -0.429,-0.4883 -1.137,-0.73244 -2.124,-0.73244 -1.435,0 -2.504,0.64944 -3.208,1.94824 V 23 h -3.559 V 7.15039 Z m 17.857,-3.85254 v 3.85254 h 2.798 v 2.63672 h -2.798 v 8.84769 c 0,0.6054 0.117,1.0449 0.351,1.3183 0.244,0.2637 0.674,0.3955 1.289,0.3955 0.411,0 0.826,-0.0488 1.246,-0.1465 v 2.754 c -0.811,0.2246 -1.592,0.3369 -2.344,0.3369 -2.735,0 -4.102,-1.5088 -4.102,-4.5264 V 9.78711 h -2.607 V 7.15039 h 2.607 V 3.29785 Z m 4.424,11.63085 c 0,-1.5527 0.307,-2.9492 0.922,-4.1894 0.616,-1.25004 1.48,-2.20707 2.593,-2.87114 1.113,-0.67382 2.393,-1.01074 3.838,-1.01074 2.139,0 3.872,0.68848 5.2,2.06543 1.338,1.37695 2.061,3.20315 2.168,5.47855 l 0.015,0.8349 c 0,1.5625 -0.303,2.959 -0.908,4.1895 -0.596,1.2304 -1.455,2.1826 -2.578,2.8564 -1.114,0.6739 -2.403,1.0108 -3.868,1.0108 -2.236,0 -4.028,-0.7422 -5.376,-2.2266 -1.337,-1.4941 -2.006,-3.4814 -2.006,-5.9619 z m 3.559,0.3076 c 0,1.6309 0.337,2.9102 1.011,3.8379 0.674,0.918 1.611,1.377 2.812,1.377 1.202,0 2.134,-0.4688 2.798,-1.4063 0.674,-0.9375 1.011,-2.3095 1.011,-4.1162 0,-1.6016 -0.347,-2.8711 -1.04,-3.8086 -0.684,-0.9375 -1.616,-1.40623 -2.798,-1.40623 -1.162,0 -2.085,0.46383 -2.768,1.39163 -0.684,0.9179 -1.026,2.2949 -1.026,4.1308 z M 190.903,3.29785 v 3.85254 h 2.798 v 2.63672 h -2.798 v 8.84769 c 0,0.6054 0.118,1.0449 0.352,1.3183 0.244,0.2637 0.674,0.3955 1.289,0.3955 0.41,0 0.825,-0.0488 1.245,-0.1465 v 2.754 c -0.81,0.2246 -1.592,0.3369 -2.344,0.3369 -2.734,0 -4.101,-1.5088 -4.101,-4.5264 V 9.78711 h -2.608 V 7.15039 h 2.608 V 3.29785 Z m 9.038,5.58106 c 1.163,-1.34766 2.632,-2.02149 4.41,-2.02149 3.378,0 5.092,1.92871 5.141,5.78618 V 23 h -3.559 V 12.7754 c 0,-1.0938 -0.24,-1.8652 -0.718,-2.3145 -0.469,-0.4589 -1.162,-0.68844 -2.08,-0.68844 -1.426,0 -2.49,0.63474 -3.194,1.90434 V 23 h -3.559 V 0.5 h 3.559 z M 220.083,23.293 c -2.256,0 -4.087,-0.708 -5.493,-2.1241 -1.397,-1.4257 -2.095,-3.3203 -2.095,-5.6835 v -0.4395 c 0,-1.582 0.303,-2.9932 0.908,-4.2334 0.616,-1.25 1.475,-2.22168 2.578,-2.91504 1.104,-0.69336 2.334,-1.04004 3.692,-1.04004 2.158,0 3.823,0.68848 4.995,2.06543 1.182,1.37695 1.772,3.32515 1.772,5.84475 v 1.4355 h -10.356 c 0.107,1.3086 0.542,2.3438 1.304,3.1055 0.771,0.7617 1.738,1.1426 2.9,1.1426 1.631,0 2.959,-0.6592 3.984,-1.9776 l 1.919,1.8311 c -0.634,0.9473 -1.484,1.6846 -2.548,2.2119 -1.055,0.5176 -2.242,0.7764 -3.56,0.7764 z M 219.658,9.71387 c -0.976,0 -1.767,0.34183 -2.373,1.02543 -0.596,0.6836 -0.976,1.6357 -1.142,2.8564 h 6.782 V 13.332 c -0.078,-1.1914 -0.396,-2.0898 -0.952,-2.6953 -0.557,-0.6152 -1.328,-0.92283 -2.315,-0.92283 z m 29.663,4.24803 h -8.584 V 23 h -3.706 V 1.67188 h 13.55 v 2.98828 h -9.844 v 6.34274 h 8.584 z m 13.14,7.4854 c -1.045,1.2304 -2.529,1.8457 -4.453,1.8457 -1.719,0 -3.023,-0.503 -3.911,-1.5088 -0.879,-1.0059 -1.319,-2.461 -1.319,-4.3653 V 7.15039 h 3.56 V 17.375 c 0,2.0117 0.835,3.0176 2.505,3.0176 1.728,0 2.895,-0.6201 3.501,-1.8604 V 7.15039 h 3.559 V 23 h -3.354 z M 273.989,3.29785 v 3.85254 h 2.798 v 2.63672 h -2.798 v 8.84769 c 0,0.6054 0.117,1.0449 0.352,1.3183 0.244,0.2637 0.674,0.3955 1.289,0.3955 0.41,0 0.825,-0.0488 1.245,-0.1465 v 2.754 c -0.811,0.2246 -1.592,0.3369 -2.344,0.3369 -2.734,0 -4.101,-1.5088 -4.101,-4.5264 V 9.78711 h -2.608 V 7.15039 h 2.608 V 3.29785 Z m 15.132,18.14945 c -1.045,1.2304 -2.529,1.8457 -4.453,1.8457 -1.719,0 -3.022,-0.503 -3.911,-1.5088 -0.879,-1.0059 -1.319,-2.461 -1.319,-4.3653 V 7.15039 h 3.56 V 17.375 c 0,2.0117 0.835,3.0176 2.505,3.0176 1.728,0 2.895,-0.6201 3.501,-1.8604 V 7.15039 h 3.559 V 23 h -3.354 z m 15.366,-11.045 c -0.468,-0.0781 -0.952,-0.1171 -1.45,-0.1171 -1.631,0 -2.729,0.625 -3.296,1.875 V 23 h -3.559 V 7.15039 h 3.398 l 0.088,1.77246 c 0.859,-1.37695 2.051,-2.06543 3.574,-2.06543 0.508,0 0.928,0.06836 1.26,0.20508 z m 8.936,12.8907 c -2.256,0 -4.087,-0.708 -5.493,-2.1241 -1.397,-1.4257 -2.095,-3.3203 -2.095,-5.6835 v -0.4395 c 0,-1.582 0.303,-2.9932 0.908,-4.2334 0.615,-1.25 1.475,-2.22168 2.578,-2.91504 1.104,-0.69336 2.334,-1.04004 3.692,-1.04004 2.158,0 3.823,0.68848 4.995,2.06543 1.181,1.37695 1.772,3.32515 1.772,5.84475 v 1.4355 h -10.356 c 0.107,1.3086 0.542,2.3438 1.304,3.1055 0.771,0.7617 1.738,1.1426 2.9,1.1426 1.631,0 2.959,-0.6592 3.984,-1.9776 l 1.919,1.8311 c -0.635,0.9473 -1.484,1.6846 -2.549,2.2119 -1.054,0.5176 -2.241,0.7764 -3.559,0.7764 z M 312.998,9.71387 c -0.977,0 -1.768,0.34183 -2.373,1.02543 -0.596,0.6836 -0.977,1.6357 -1.143,2.8564 h 6.783 V 13.332 c -0.078,-1.1914 -0.396,-2.0898 -0.953,-2.6953 -0.556,-0.6152 -1.328,-0.92283 -2.314,-0.92283 z"
         style="fill:url(#paint0_linear-9)" />
    </g>
  </g>
</svg>
